<?xml version="1.0" standalone="no"?>
<!DOCTYPE svg PUBLIC "-//W3C//DTD SVG 20010904//EN"
 "http://www.w3.org/TR/2001/REC-SVG-20010904/DTD/svg10.dtd">
<svg version="1.0" xmlns="http://www.w3.org/2000/svg"
 width="640.000000pt" height="640.000000pt" viewBox="0 0 640.000000 640.000000"
 preserveAspectRatio="xMidYMid meet">
<metadata>
Created by potrace 1.14, written by Peter Selinger 2001-2017
</metadata>
<g transform="translate(0.000000,640.000000) scale(0.100000,-0.100000)"
fill="#000000" stroke="none">
<path d="M0 3200 l0 -3200 1235 0 c679 0 1235 3 1235 8 0 4 -11 54 -25 111
-14 57 -32 140 -40 185 -8 45 -24 127 -35 184 -28 146 -29 143 33 170 29 12
93 31 142 41 50 11 146 31 215 46 101 22 142 26 210 22 98 -6 117 -10 128 -23
5 -5 25 -63 46 -129 76 -238 118 -351 158 -425 22 -41 55 -101 72 -132 l31
-58 166 0 167 0 60 65 c89 95 163 212 213 337 39 97 59 181 84 353 42 291 42
394 0 537 -21 74 -51 116 -106 153 -25 17 -62 44 -81 61 -20 18 -42 34 -48 36
-8 2 -10 12 -5 27 6 20 12 22 39 18 66 -11 188 -72 250 -125 91 -79 143 -147
191 -247 53 -112 80 -223 96 -387 20 -223 -18 -517 -106 -805 -7 -23 -6 -23
80 -23 l87 0 -6 47 c-4 41 -17 284 -20 393 -1 32 2 35 49 53 66 25 132 19 182
-17 98 -69 94 -63 108 -184 7 -61 13 -117 12 -124 0 -7 1 -48 1 -90 l2 -78
790 0 790 0 0 3200 0 3200 -3200 0 -3200 0 0 -3200z m3650 1036 c148 -7 338
-79 526 -197 35 -23 79 -43 96 -46 57 -8 117 -43 163 -96 102 -117 204 -396
204 -557 l-1 -55 -15 53 c-21 70 -69 122 -113 122 -61 0 -109 -45 -125 -117
-10 -49 21 -44 41 7 17 42 41 57 28 18 -34 -107 -31 -246 8 -353 14 -38 57
-85 78 -85 47 0 80 90 80 218 0 40 3 52 16 52 8 0 13 -4 10 -9 -3 -5 -2 -52 3
-106 9 -89 15 -107 74 -233 88 -186 92 -199 91 -327 -2 -192 -67 -345 -212
-497 -166 -174 -404 -285 -688 -323 -46 -6 -53 -10 -68 -42 -9 -19 -22 -69
-28 -110 -10 -64 -15 -76 -36 -84 -39 -15 -49 -11 -104 42 -61 58 -186 143
-273 187 -124 61 -324 112 -441 112 -30 0 -74 10 -110 24 -123 50 -131 58 -94
91 33 30 56 74 86 160 l27 80 2 365 c1 232 6 392 14 440 12 74 18 170 26 430
3 122 7 145 39 240 37 111 35 141 -7 102 -29 -27 -41 -28 -27 -3 5 11 10 36
10 56 0 57 24 92 164 231 195 195 254 225 421 217 28 -1 88 -4 135 -7z m848
-1062 c1 -10 -2 -26 -8 -34 -15 -23 -34 3 -26 35 8 29 30 29 34 -1z m-1483
-1405 c314 -37 590 -192 770 -434 101 -135 131 -202 172 -375 30 -124 51 -204
66 -244 18 -49 11 -116 -23 -221 -18 -55 -38 -106 -43 -113 -8 -10 -19 -7 -54
14 -94 55 -173 117 -220 172 -154 179 -233 299 -368 557 -32 61 -86 153 -121
205 -34 52 -77 125 -94 162 -44 91 -115 161 -214 209 -44 21 -94 42 -113 45
-18 3 -33 10 -33 15 0 18 154 23 275 8z m-440 -249 c90 -23 218 -83 288 -135
62 -46 141 -167 168 -257 12 -38 19 -71 17 -73 -2 -2 -26 30 -54 72 -27 41
-76 100 -109 130 -75 69 -204 148 -218 134 -6 -6 6 -19 34 -36 76 -47 119 -78
163 -117 45 -39 149 -185 179 -251 9 -20 48 -77 86 -125 106 -135 135 -203 56
-134 -58 51 -136 76 -240 75 -86 0 -387 -57 -504 -95 -134 -44 -265 -143 -307
-233 -25 -53 -32 -132 -14 -166 19 -34 26 -20 26 49 0 46 5 78 18 102 20 37
65 90 77 90 5 0 20 12 36 26 l28 25 7 -28 c4 -15 10 -46 13 -68 5 -42 39 -223
54 -290 5 -22 12 -55 16 -72 9 -39 2 -41 -71 -16 -153 52 -264 165 -314 317
-17 54 -14 196 6 264 8 31 31 86 50 123 18 37 49 128 68 201 20 73 44 159 55
190 33 97 110 242 148 281 33 35 39 37 98 37 34 0 97 -9 140 -20z m1353 -84
c23 -8 54 -25 71 -37 82 -61 114 -287 75 -544 -9 -60 -17 -112 -19 -114 -4 -3
-9 16 -59 216 -20 77 -40 153 -46 168 -16 42 -2 44 30 5 16 -19 31 -32 35 -28
13 13 -26 67 -65 89 -23 13 -51 41 -64 64 -14 23 -45 68 -70 102 -25 33 -46
65 -46 71 0 23 102 28 158 8z m740 -349 c41 -67 68 -143 88 -249 20 -107 34
-142 87 -225 120 -187 142 -249 125 -343 -8 -47 -17 -65 -50 -99 -47 -47 -58
-50 -58 -18 -1 33 -10 128 -15 160 -9 52 40 17 61 -45 13 -38 30 -47 39 -19
10 31 -18 72 -98 147 -137 128 -201 160 -287 144 -28 -5 -59 -14 -70 -20 -23
-12 -22 -13 -20 100 1 48 9 85 32 140 44 107 78 260 78 354 l0 80 28 -27 c15
-14 42 -50 60 -80z m-1448 -489 c0 -68 -16 -43 -57 92 -2 8 10 -1 26 -20 23
-25 31 -44 31 -72z"/>
<path d="M3913 3919 c-18 -18 -16 -94 2 -129 20 -38 62 -70 94 -70 35 0 80 39
86 75 7 37 -22 88 -64 109 -43 23 -104 30 -118 15z"/>
<path d="M4385 3728 c-54 -29 -62 -93 -16 -139 16 -16 38 -29 48 -29 41 1 73
48 73 107 0 35 -4 41 -35 56 -41 20 -44 20 -70 5z"/>
<path d="M3704 3720 c-103 -21 -223 -116 -264 -207 -26 -58 -26 -83 0 -83 13
0 25 13 38 43 26 58 104 141 155 166 60 29 76 27 44 -6 -47 -50 -67 -109 -67
-204 0 -101 18 -169 63 -235 79 -119 209 -123 273 -9 23 40 50 181 41 214 -2
11 2 30 11 42 12 18 13 30 4 70 -34 147 -163 236 -298 209z m21 -310 c9 -27
-11 -59 -41 -66 -29 -7 -44 7 -44 43 0 40 73 61 85 23z"/>
<path d="M4287 3154 c-14 -15 -6 -23 28 -30 39 -7 65 -36 65 -72 0 -15 5 -22
13 -19 18 6 12 66 -11 96 -19 26 -78 41 -95 25z"/>
<path d="M4210 2599 c-63 -17 -159 -70 -209 -115 -150 -135 -141 -305 18 -357
40 -13 57 -14 76 -5 18 8 28 8 39 -1 20 -17 117 2 156 30 33 25 87 129 124
241 31 92 32 113 6 156 -34 56 -117 76 -210 51z m161 -40 c52 -28 -13 -39 -96
-17 -25 7 -45 15 -45 19 0 20 104 18 141 -2z m-271 -83 c0 -3 -4 -8 -10 -11
-5 -3 -10 -1 -10 4 0 6 5 11 10 11 6 0 10 -2 10 -4z m7 -48 c-3 -8 -6 -5 -6 6
-1 11 2 17 5 13 3 -3 4 -12 1 -19z m113 5 c0 -5 -5 -15 -10 -23 -8 -12 -10
-11 -10 8 0 12 5 22 10 22 6 0 10 -3 10 -7z m30 -41 c0 -15 -2 -15 -10 -2 -13
20 -13 33 0 25 6 -3 10 -14 10 -23z m-150 -26 c0 -2 -7 -7 -16 -10 -8 -3 -12
-2 -9 4 6 10 25 14 25 6z m-153 -48 c-3 -8 -6 -5 -6 6 -1 11 2 17 5 13 3 -3 4
-12 1 -19z m210 0 c-3 -8 -6 -5 -6 6 -1 11 2 17 5 13 3 -3 4 -12 1 -19z m110
5 c-4 -3 -2 -12 5 -20 8 -11 7 -12 -6 -7 -9 3 -16 9 -16 13 0 9 11 21 18 21 3
0 2 -3 -1 -7z m-220 -19 c-3 -3 -12 -4 -19 -1 -8 3 -5 6 6 6 11 1 17 -2 13 -5z
m90 -36 c-3 -8 -6 -5 -6 6 -1 11 2 17 5 13 3 -3 4 -12 1 -19z m-157 -2 c0 -3
-4 -8 -10 -11 -5 -3 -10 -1 -10 4 0 6 5 11 10 11 6 0 10 -2 10 -4z m-15 -36
c3 -5 1 -10 -4 -10 -6 0 -11 5 -11 10 0 6 2 10 4 10 3 0 8 -4 11 -10z m270
-10 c3 -5 1 -10 -4 -10 -6 0 -11 5 -11 10 0 6 2 10 4 10 3 0 8 -4 11 -10z
m-205 -20 c0 -11 -2 -20 -4 -20 -2 0 -6 9 -9 20 -3 11 -1 20 4 20 5 0 9 -9 9
-20z m50 -21 c0 -5 -4 -9 -8 -9 -5 0 -9 7 -9 15 0 8 4 12 9 9 4 -3 8 -9 8 -15z
m88 -14 c-3 -3 -9 2 -12 12 -6 14 -5 15 5 6 7 -7 10 -15 7 -18z"/>
<path d="M2256 515 c-3 -8 -1 -15 4 -15 6 0 10 7 10 15 0 8 -2 15 -4 15 -2 0
-6 -7 -10 -15z"/>
<path d="M2255 400 c-3 -5 -1 -10 4 -10 6 0 11 5 11 10 0 6 -2 10 -4 10 -3 0
-8 -4 -11 -10z"/>
<path d="M2221 364 c0 -11 3 -14 6 -6 3 7 2 16 -1 19 -3 4 -6 -2 -5 -13z"/>
<path d="M2260 320 c-8 -5 -10 -10 -5 -10 6 0 17 5 25 10 8 5 11 10 5 10 -5 0
-17 -5 -25 -10z"/>
<path d="M2332 240 c-7 -11 -8 -20 -3 -20 9 0 24 30 18 36 -1 2 -8 -6 -15 -16z"/>
</g>
</svg>
