<svg t="1633876579839" class="icon" viewBox="0 0 1024 1024" xmlns="http://www.w3.org/2000/svg" p-id="573" width="200" height="200"><path d="M512 1024C229.248 1024 0 794.752.0 512S229.248.0 512 0s512 229.248 512 512-229.248 512-512 512zm259.168-568.896H480.416a25.28 25.28.0 00-25.28 25.28l-.032 63.232c0 13.952 11.296 25.28 25.28 25.28h177.024a25.28 25.28.0 0125.28 25.28v12.64a75.84 75.84.0 01-75.84 75.84H366.624a25.28 25.28.0 01-25.28-25.28V417.184a75.84 75.84.0 0175.84-75.84h353.92a25.28 25.28.0 0025.28-25.28l.064-63.2a25.312 25.312.0 00-25.28-25.312H417.184a189.632 189.632.0 00-189.632 189.6v353.952c0 13.952 11.328 25.28 25.28 25.28H625.76a170.656 170.656.0 00170.656-170.656V480.352a25.28 25.28.0 00-25.28-25.28z" p-id="574" fill="#d90013"/></svg>